<?xml version="1.0" encoding="UTF-8" standalone="no"?>
<svg width="23px" height="22px" viewBox="0 0 23 22" version="1.1" xmlns="http://www.w3.org/2000/svg" xmlns:xlink="http://www.w3.org/1999/xlink" xmlns:sketch="http://www.bohemiancoding.com/sketch/ns">
    <!-- Generator: Sketch 3.5.1 (25234) - http://www.bohemiancoding.com/sketch -->
    <title>pathup</title>
    <desc>Created with Sketch.</desc>
    <defs></defs>
    <g id="Page-1" stroke="none" stroke-width="1" fill="none" fill-rule="evenodd" sketch:type="MSPage">
        <g id="pathup" sketch:type="MSArtboardGroup">
            <path d="M2,4.99253979 C2,3.33980572 3.35242158,2.00000002 5.00749937,2.00000001 C5.00749937,2.00000001 7.07438881,1.99999997 9.11071135,2.00000004 C10.5789474,2.00000009 10.5789474,4 12,4 C13.4210526,4 18.0078804,4 18.0078804,4 C19.6603824,4 21,5.33663106 21,7.00947761 L21,16.9905224 C21,18.652611 19.6639569,20 17.9998779,20 L5.00012207,20 C3.3432004,20 2,18.6470745 2,17.0074602 L2,4.99253979 Z" id="folder" stroke="#ACB5BF" stroke-width="2" sketch:type="MSShapeGroup"></path>
            <rect id="Rectangle-4" fill="#ACB5BF" sketch:type="MSShapeGroup" x="10" y="12" width="3" height="4"></rect>
            <path d="M11.5,7 L15,12 L8,12 L11.5,7 Z" id="Rectangle-5" fill="#ACB5BF" sketch:type="MSShapeGroup"></path>
        </g>
    </g>
</svg>