<?xml version="1.0" encoding="UTF-8" standalone="no"?>
<svg width="20px" height="20px" viewBox="0 0 20 20" version="1.1" xmlns="http://www.w3.org/2000/svg" xmlns:xlink="http://www.w3.org/1999/xlink" xmlns:sketch="http://www.bohemiancoding.com/sketch/ns">
    <!-- Generator: Sketch 3.5.1 (25234) - http://www.bohemiancoding.com/sketch -->
    <title>pathup</title>
    <desc>Created with Sketch.</desc>
    <defs></defs>
    <g id="Page-1" stroke="none" stroke-width="1" fill="none" fill-rule="evenodd" sketch:type="MSPage">
        <g id="pathup" sketch:type="MSArtboardGroup">
            <path d="M1,3.99253979 C1,2.33980572 2.34540145,1.00000002 3.99825809,1.00000001 C3.99825809,1.00000001 5.07438881,0.999999966 7.11071135,1.00000004 C8.57894737,1.00000009 8.57894737,3 10,3 C11.4210526,3 16.0078804,3 16.0078804,3 C17.6603824,3 19,4.33663106 19,6.00947761 L19,15.9905224 C19,17.652611 17.6470745,19 16.0074602,19 L3.99253976,19 C2.33980569,19 1,17.6470745 1,16.0074602 L1,3.99253979 Z" id="folder" stroke="#ACB5BF" stroke-width="2" sketch:type="MSShapeGroup"></path>
            <rect id="Rectangle-4" fill="#ACB5BF" sketch:type="MSShapeGroup" x="9" y="11" width="2" height="4"></rect>
            <path d="M10,6 L13,11 L7,11 L10,6 Z" id="Rectangle-5" fill="#ACB5BF" sketch:type="MSShapeGroup"></path>
        </g>
    </g>
</svg>